<?xml version="1.0" encoding="UTF-8"?>
<svg id="Ebene_1" xmlns="http://www.w3.org/2000/svg" version="1.1" viewBox="0 0 440.15 96.01">
  <!-- Generator: Adobe Illustrator 29.4.0, SVG Export Plug-In . SVG Version: 2.1.0 Build 152)  -->
  <defs>
    <style>
      .st0 {
        fill: #f4a007;
      }
    </style>
  </defs>
  <path class="st0" d="M0,96.01h7.57v-23.52h9.35v23.52h7.57v-52.83h-7.57v22.63H7.57v-22.63H0v52.83h0ZM86.34,96.01h22.56v-7.57h-14.99v-45.27h-7.57v52.83h0ZM124.93,96.01h22.56v-7.57h-14.99v-45.27h-7.57v52.83h0ZM163.51,96.01h22.56v-7.57h-14.99v-15.51h13.06v-7.12h-13.06v-15.51h14.99v-7.12h-22.56v52.83h0ZM198.91,96.45h5.94l9.8-53.73h-5.94l-9.79,53.73h-.01ZM229.7,96.01h22.56v-7.57h-14.99v-45.27h-7.57v52.83h0ZM264.73,96.01h22.56v-7.57h-14.99v-15.51h13.06v-7.12h-13.06v-15.51h14.99v-7.12h-22.56v52.83h0ZM299.98,96.01h7.57v-52.83h-7.57v52.83h0ZM322.46,96.01h7.57v-20.63h3.86c2.82,0,5.1-.48,6.83-1.45,1.73-.96,3.12-2.31,4.15-4.04.89-1.43,1.47-2.98,1.74-4.64.27-1.66.41-3.65.41-5.97,0-3.17-.25-5.68-.74-7.53-.49-1.86-1.39-3.47-2.67-4.86-1.29-1.38-2.72-2.35-4.3-2.89s-3.41-.82-5.49-.82h-11.35v52.83h0ZM330.03,50.3h3.93c1.48,0,2.62.24,3.41.7.79.47,1.37,1.11,1.74,1.93s.59,1.78.67,2.89c.08,1.11.11,2.29.11,3.52,0,1.34-.04,2.55-.11,3.64-.07,1.09-.31,2.02-.7,2.78-.4.77-1.01,1.37-1.86,1.82-.84.45-2.03.67-3.56.67h-3.64v-17.96h.01ZM357.78,96.01h22.48v-7.12h-14.55l14.55-39.7v-6.01h-21.74v7.12h13.51l-14.25,39.03v6.68h0ZM392.73,96.01h7.57v-52.83h-7.57v52.83h0ZM414.77,83.54c0,2.18.37,4.07,1.11,5.68s1.72,2.94,2.93,4.01c1.21,1.06,2.57,1.87,4.08,2.41,1.51.54,3.03.82,4.56.82s3.05-.27,4.56-.82c1.51-.54,2.87-1.35,4.08-2.41,1.21-1.06,2.19-2.4,2.93-4.01s1.11-3.5,1.11-5.68v-16.62h-13.58v6.68h6.01v9.94c0,1.83-.51,3.18-1.52,4.04-1.01.87-2.21,1.3-3.6,1.3s-2.58-.43-3.6-1.3c-1.01-.87-1.52-2.21-1.52-4.04v-27.9c0-1.83.51-3.18,1.52-4.04,1.01-.87,2.21-1.3,3.6-1.3s2.59.43,3.6,1.3,1.52,2.21,1.52,4.04v2.67h7.57v-2.67c0-2.13-.37-4.01-1.11-5.64s-1.72-2.98-2.93-4.04-2.57-1.87-4.08-2.41c-1.51-.54-3.03-.82-4.56-.82s-3.05.27-4.56.82c-1.51.54-2.87,1.35-4.08,2.41s-2.19,2.41-2.93,4.04-1.11,3.51-1.11,5.64v27.9h0Z"/>
  <path class="st0" d="M118.5,28.05c.29-.06.54-.16.73-.29.19-.13.34-.31.45-.54.11-.23.17-.52.17-.87V8.84l-6.96,3.52c-.22.06-.4,0-.54-.14-.14-.15-.2-.38-.18-.69v-6.74c0-.07,0-.16.03-.25.02-.09.06-.17.11-.23s.14-.12.26-.18.27-.08.45-.08c.16,0,.34,0,.52-.01.18,0,.37-.02.55-.03.18,0,.37-.01.55-.01s.36,0,.54.03c.17.02.33.04.47.07s.26.07.36.12c.1.06.17.13.22.22.05.09.06.19.04.3l.03,2.7,3.55-.77.08-5.64c-.06-.33-.23-.58-.52-.74-.29-.17-.73-.25-1.32-.25l-8.42-.03c-.22.05-.4.11-.54.18-.14.06-.25.14-.34.23-.09.09-.16.21-.22.36-.06.15-.11.34-.17.58v17.33l7.51-3.88v8.91c-.11.22-.28.38-.51.48s-.49.16-.77.18-.58.01-.89-.01c-.31-.03-.6-.04-.85-.04-.22.02-.39-.04-.51-.18s-.19-.36-.21-.67l.03-3.99-3.8,2.34v5.12c0,.17.04.32.11.47s.17.27.29.37.25.19.4.26.29.11.44.11l7.87.03c.37-.02.7-.06.99-.12h0v-.02ZM129.92,28.18c.16,0,.29-.01.38-.04.09-.03.16-.07.21-.14.04-.06.08-.15.1-.26s.04-.25.06-.41V4.27h3.71c.13,0,.23,0,.32-.01.08,0,.15-.04.21-.08.05-.05.09-.11.11-.19s.04-.21.05-.37V.36c-.02-.09-.04-.16-.05-.21-.02-.05-.05-.08-.1-.1-.05-.02-.11-.03-.18-.04C134.67.01,134.56,0,134.44,0h-12.52c-.13.04-.23.07-.3.11s-.13.08-.18.12c-.05.05-.08.11-.1.18s-.03.17-.03.28v3.05c.02.13.04.23.07.3.03.07.06.13.11.17s.12.06.21.06h4.13l.03,23.16v.4c0,.1.02.18.06.23s.1.09.18.1c.08,0,.21.01.37.01h3.47-.02ZM140.54,19.04l4.79-2.34.03,11.47h4.73l.03-26.63c-.02-.29-.05-.54-.11-.74-.06-.2-.14-.36-.26-.47-.12-.11-.28-.19-.47-.23-.19-.05-.44-.07-.73-.07h-11.09c-.31.04-.57.09-.77.16-.2.07-.37.17-.51.3s-.24.29-.3.5c-.06.2-.1.44-.12.72v26.47h4.79v-9.13h0ZM140.24,5.89c-.02-.31.05-.55.19-.7.15-.16.39-.23.74-.23h3.03c.35.02.59.11.73.26.14.16.22.4.23.73v5.12l-4.92,2.39v-7.57h0ZM155.77,28.14c.1-.03.18-.08.23-.15.06-.07.1-.17.12-.29.03-.12.05-.26.07-.43v-10.21h1.15l5.67,10.29c.09.18.17.33.23.43s.12.18.18.25c.05.06.12.11.19.12.07.02.17.03.3.03h4.21l-7.18-12.63,2.92-2.83c.2-.22.36-.4.48-.54s.21-.27.26-.39c.05-.12.09-.26.11-.41.02-.16.02-.36,0-.62V3.89c-.04-.79-.12-1.43-.25-1.93-.13-.5-.3-.88-.52-1.17-.22-.28-.48-.48-.78-.59-.3-.11-.66-.17-1.06-.19h-9.6c-.15,0-.28,0-.39.03-.11.02-.2.06-.26.12s-.11.15-.14.26-.04.26-.04.44v26.36c-.02.33.04.57.17.73s.32.23.58.23h2.94c.17,0,.3-.01.4-.04h.01ZM156.66,12.74c-.13.09-.22.11-.27.06-.06-.06-.09-.18-.11-.39-.02-.2-.03-.5-.03-.88l-.03-6.27c0-.13,0-.22.03-.29.02-.06.05-.11.1-.15s.11-.06.19-.07c.08,0,.2-.01.34-.01h3.05c.2,0,.34.03.43.08.08.05.12.17.12.33l.03,3.36c-.02.17-.06.3-.12.4-.06.1-.13.2-.21.29l-2.97,3.11c-.24.2-.42.35-.55.44h0ZM188.55,28.18c.16,0,.29-.01.38-.04.09-.03.16-.07.21-.14.04-.06.08-.15.1-.26s.04-.25.06-.41V4.27h3.71c.13,0,.23,0,.32-.01.08,0,.15-.04.21-.08.06-.05.09-.11.11-.19s.04-.21.05-.37V.36c-.02-.09-.04-.16-.05-.21-.02-.05-.05-.08-.1-.1-.05-.02-.11-.03-.18-.04C193.3.01,193.2,0,193.07,0h-12.52c-.13.04-.23.07-.3.11s-.13.08-.18.12c-.05.05-.08.11-.1.18s-.03.17-.03.28v3.05c.02.13.04.23.07.3.03.07.06.13.11.17s.11.06.21.06h4.13l.03,23.16v.4c0,.1.02.18.06.23s.1.09.18.1c.08,0,.21.01.37.01h3.47-.02ZM198.49,28.14c.1-.03.18-.08.23-.15.06-.07.1-.17.12-.29.03-.12.05-.26.07-.43v-10.21h1.15l5.67,10.29c.09.18.17.33.23.43s.12.18.18.25c.05.06.12.11.19.12.07.02.17.03.3.03h4.21l-7.18-12.63,2.92-2.83c.2-.22.36-.4.48-.54s.21-.27.26-.39c.06-.12.09-.26.11-.41.02-.16.02-.36,0-.62V3.89c-.04-.79-.12-1.43-.25-1.93-.13-.5-.3-.88-.52-1.17-.22-.28-.48-.48-.78-.59-.3-.11-.66-.17-1.06-.19h-9.6c-.15,0-.28,0-.39.03-.11.02-.2.06-.26.12s-.11.15-.14.26-.04.26-.04.44v26.36c-.02.33.04.57.17.73s.32.23.58.23h2.94c.17,0,.3-.01.4-.04h.01ZM199.38,12.74c-.13.09-.22.11-.27.06-.06-.06-.09-.18-.11-.39-.02-.2-.03-.5-.03-.88l-.03-6.27c0-.13,0-.22.03-.29.02-.06.05-.11.1-.15.04-.04.11-.06.19-.07.08,0,.2-.01.34-.01h3.05c.2,0,.34.03.43.08.08.05.12.17.12.33l.03,3.36c-.02.17-.06.3-.12.4-.06.1-.13.2-.21.29l-2.97,3.11c-.24.2-.42.35-.55.44h0ZM221.59,28.09c.11,0,.2-.01.28-.04.07-.03.13-.06.18-.1.05-.04.07-.09.08-.16,0-.07,0-.17,0-.28v-3.22c0-.2-.04-.34-.11-.41s-.2-.11-.38-.11h-5.34v-6.8l5.31-2.86v-5.06l-5.31,2.67v-6.6l4.51-.85c.13-.04.24-.07.34-.11.1-.04.19-.08.26-.12.07-.05.12-.11.15-.21.03-.09.05-.21.07-.36V.78c0-.15,0-.28-.03-.39-.02-.11-.05-.19-.1-.25-.05-.05-.11-.09-.19-.11C221.24,0,221.14,0,221.03,0h-7.84c-.16,0-.34.06-.52.18-.18.12-.35.26-.5.43s-.27.35-.37.56c-.1.21-.14.41-.12.59v25.67c0,.07.03.15.1.23.06.08.14.16.22.23s.17.13.26.17.17.04.25,0l9.08.03h0ZM228,28.18v-8.28l1.18-2.89,5.2,11.17h4.51l-7.59-15.57,6.24-12.61-4.57.03-4.98,9.55V0h-4.48l-.03,28.12,4.51.05h.01ZM259.28,28.15c.33-.02.64-.08.93-.18.29-.1.57-.22.84-.37.27-.15.51-.33.73-.54.22-.21.43-.43.62-.66s.36-.47.51-.72c.15-.25.28-.49.39-.73.11-.24.2-.48.26-.72s.11-.46.12-.66V4.44c-.04-.61-.15-1.16-.33-1.68-.18-.51-.44-.96-.78-1.33-.34-.38-.75-.68-1.24-.92s-1.06-.39-1.72-.47h-8.12v28.14l7.79-.03h0ZM255.07,24.71V3.5h2.92c.33.02.61.07.84.17.23.09.42.24.56.44.15.2.27.46.36.77s.16.69.19,1.13v16.62c-.02.29-.07.57-.15.84s-.21.49-.37.67c-.17.18-.36.33-.59.44s-.51.17-.84.17l-2.92-.03h0ZM269.62,28.07c.17-.04.3-.1.4-.18s.18-.18.23-.3c.06-.12.09-.24.11-.37V.97c-.02-.22-.04-.39-.07-.51s-.07-.21-.14-.28c-.07-.06-.16-.11-.28-.12-.12-.02-.29-.04-.51-.05l-3.16.03c-.26,0-.46,0-.61.04s-.26.07-.33.14c-.07.06-.12.15-.14.26-.02.11-.02.27,0,.47v26.3c0,.35.12.59.36.72s.61.17,1.13.14l2.42.03c.22,0,.41-.02.58-.05h0v-.02ZM276.11,5.87c0-.15,0-.28.01-.41,0-.13.04-.24.11-.34.06-.1.15-.18.25-.23s.24-.07.43-.05h2.94c.18-.02.33,0,.44.03.11.04.19.1.25.19s.09.21.11.34c.02.14.03.3.03.48v22.31h4.62V2.76c-.07-.4-.24-.76-.49-1.06-.26-.3-.58-.56-.98-.78-.4-.22-.83-.4-1.31-.54-.48-.14-.97-.24-1.49-.3-.51-.06-1.02-.09-1.51-.07-.5.02-.96.07-1.39.15-.43.08-.81.2-1.14.34-.33.15-.57.32-.71.52-.04-.06-.07-.12-.11-.21-.04-.08-.08-.16-.12-.23-.05-.07-.11-.14-.18-.19s-.16-.08-.28-.08l-3.27.11c-.15,0-.27.02-.38.07-.11.05-.2.11-.28.18-.07.07-.13.16-.16.25-.04.09-.05.19-.05.3v26.96h4.68V5.87h-.02ZM291.49,5.87c0-.15,0-.28.01-.41,0-.13.05-.24.11-.34.06-.1.15-.18.25-.23s.24-.07.43-.05h2.94c.18-.02.33,0,.44.03.11.04.19.1.25.19s.09.21.11.34c.02.14.03.3.03.48v22.31h4.62V2.76c-.07-.4-.24-.76-.49-1.06-.26-.3-.58-.56-.98-.78-.39-.22-.83-.4-1.31-.54-.48-.14-.97-.24-1.48-.3-.51-.06-1.02-.09-1.51-.07-.5.02-.96.07-1.39.15-.43.08-.81.2-1.14.34-.33.15-.57.32-.72.52-.04-.06-.07-.12-.11-.21-.04-.08-.08-.16-.12-.23-.05-.07-.11-.14-.18-.19s-.17-.08-.27-.08l-3.27.11c-.15,0-.28.02-.39.07-.11.05-.2.11-.27.18-.07.07-.13.16-.17.25s-.05.19-.05.3v26.96h4.68V5.87h-.02ZM312.12,28.09c.11,0,.2-.01.28-.04.07-.03.13-.06.18-.1s.07-.09.08-.16c0-.07.01-.17.01-.28v-3.22c0-.2-.04-.34-.11-.41-.07-.07-.2-.11-.38-.11h-5.34v-6.8l5.31-2.86v-5.06l-5.31,2.67v-6.6l4.51-.85c.13-.04.24-.07.34-.11s.19-.08.26-.12c.07-.05.12-.11.15-.21.03-.09.05-.21.07-.36V.78c0-.15,0-.28-.03-.39-.02-.11-.05-.19-.1-.25-.05-.05-.11-.09-.19-.11C311.77,0,311.67,0,311.56,0h-7.84c-.17,0-.34.06-.52.18-.18.12-.35.26-.49.43-.15.17-.27.35-.37.56s-.14.41-.12.59v25.67c0,.07.03.15.1.23.06.08.14.16.22.23s.17.13.26.17.17.04.25,0l9.08.03h-.01ZM318.13,28.14c.1-.03.18-.08.23-.15.05-.07.1-.17.12-.29.03-.12.05-.26.07-.43v-10.21h1.15l5.67,10.29c.09.18.17.33.23.43s.12.18.18.25c.05.06.12.11.19.12.07.02.17.03.3.03h4.21l-7.18-12.63,2.92-2.83c.2-.22.36-.4.48-.54.12-.14.21-.27.26-.39.05-.12.09-.26.11-.41.02-.16.02-.36,0-.62V3.89c-.04-.79-.12-1.43-.25-1.93-.13-.5-.3-.88-.52-1.17-.22-.28-.48-.48-.78-.59-.3-.11-.66-.17-1.06-.19h-9.6c-.15,0-.28,0-.39.03-.11.02-.2.06-.26.12-.07.06-.11.15-.14.26-.03.11-.04.26-.04.44v26.36c-.02.33.04.57.16.73.13.16.32.23.58.23h2.94c.17,0,.3-.01.4-.04h.02ZM319.03,12.74c-.13.09-.22.11-.27.06-.05-.06-.09-.18-.11-.39-.02-.2-.03-.5-.03-.88l-.03-6.27c0-.13,0-.22.03-.29.02-.06.05-.11.1-.15.04-.04.11-.06.19-.07.08,0,.2-.01.34-.01h3.05c.2,0,.34.03.43.08.08.05.12.17.12.33l.03,3.36c-.02.17-.06.3-.12.4-.07.1-.13.2-.21.29l-2.97,3.11c-.24.2-.42.35-.55.44h0Z"/>
  <path class="st0" d="M39.18,96.01c1.34-18.36,9.99-46.61,17.71-53.89,5.95,5.64,15.84,39.64,14.66,53.89,0,0-8.97-15.68-11.57-15.68-5.26,0-20.8,15.68-20.8,15.68h0Z"/>
</svg>