<?xml version="1.0" encoding="UTF-8"?>
<svg id="Ebene_1" data-name="Ebene 1" xmlns="http://www.w3.org/2000/svg" viewBox="0 0 440.15 147.71">
  <defs>
    <style>
      .cls-1 {
        fill: #00e1e3;
      }

      .cls-2 {
        fill: #f4a007;
      }
    </style>
  </defs>
  <path class="cls-1" d="M185.56,142.25h-2.66v.91c0,.37-.05.67-.16.91s-.24.43-.4.57c-.17.14-.35.24-.55.3-.2.06-.39.09-.56.09-.61,0-1.03-.18-1.27-.55-.24-.37-.35-.82-.35-1.36v-9.5c0-.63.11-1.14.33-1.55.22-.41.66-.61,1.32-.61.5,0,.9.19,1.2.57.3.38.44.84.44,1.36v.89h2.66v-1.04c0-.64-.11-1.24-.33-1.79-.22-.55-.52-1.02-.9-1.41-.38-.39-.84-.7-1.36-.91-.52-.22-1.09-.33-1.7-.33-.64,0-1.23.11-1.76.33-.53.22-.99.52-1.37.9-.38.38-.68.84-.89,1.36-.21.52-.31,1.09-.31,1.7v10.23c0,.85.13,1.56.4,2.12.27.56.61,1.01,1.03,1.34.42.34.89.58,1.41.72.52.14,1.03.21,1.54.21.59,0,1.14-.12,1.66-.35.51-.24.96-.55,1.35-.94.38-.39.68-.85.9-1.37.22-.52.33-1.07.33-1.64v-1.15h0ZM190.39,147.55h2.66v-8.28h3.29v8.28h2.66v-18.59h-2.66v7.96h-3.29v-7.96h-2.66v18.59h0ZM206.84,131.47h1.38c.49,0,.88.06,1.17.18.3.12.53.31.69.56.17.25.27.56.33.91s.08.77.08,1.24-.03.88-.08,1.24c-.05.36-.15.66-.3.9-.15.24-.36.43-.64.56-.28.13-.65.2-1.12.2h-1.51v-5.8h0ZM204.17,147.55h2.66v-7.94h1.59l2.48,7.94h2.82l-2.87-8.48c.85-.47,1.45-1.09,1.79-1.87.34-.77.51-1.7.51-2.78,0-3.64-1.57-5.46-4.7-5.46h-4.28v18.59h0ZM217.8,143.16c0,.77.13,1.43.39,2,.26.57.6,1.04,1.03,1.41.43.38.9.66,1.44.85.53.19,1.07.29,1.61.29s1.07-.1,1.61-.29c.53-.19,1.01-.47,1.44-.85.43-.37.77-.84,1.03-1.41.26-.56.39-1.23.39-2v-9.82c0-.75-.13-1.41-.39-1.98-.26-.57-.61-1.05-1.03-1.42-.43-.37-.91-.66-1.44-.85-.53-.19-1.07-.29-1.61-.29s-1.08.1-1.61.29c-.53.19-1.01.48-1.44.85-.43.37-.77.85-1.03,1.42-.26.57-.39,1.24-.39,1.98v9.82h0ZM220.47,133.35c0-.64.18-1.12.53-1.42.36-.3.78-.46,1.27-.46s.91.15,1.27.46c.36.3.54.78.54,1.42v9.82c0,.64-.18,1.12-.54,1.42-.36.3-.78.46-1.27.46s-.91-.15-1.27-.46c-.36-.3-.53-.78-.53-1.42v-9.82h0ZM231.64,147.55h2.66v-11.17h.05l4.07,11.17h2.51v-18.59h-2.66v11.2h-.05l-4.02-11.2h-2.56v18.59h0ZM246.08,147.55h2.66v-18.59h-2.66v18.59h0ZM253.99,147.55h2.66v-5.56l1.44-2.69,3.03,8.25h2.82l-4.31-11.15,3.63-7.44h-2.66l-3.89,8.49h-.05v-8.49h-2.66v18.59h0Z"/>
  <path class="cls-2" d="M0,96.01h7.57v-23.52h9.35v23.52h7.57v-52.83h-7.57v22.63H7.57v-22.63H0v52.83h0ZM86.34,96.01h22.56v-7.57h-14.99v-45.27h-7.57v52.83h0ZM124.93,96.01h22.56v-7.57h-14.99v-45.27h-7.57v52.83h0ZM163.51,96.01h22.56v-7.57h-14.99v-15.51h13.06v-7.12h-13.06v-15.51h14.99v-7.12h-22.56v52.83h0ZM198.91,96.45h5.94l9.8-53.73h-5.94l-9.79,53.73h0ZM229.7,96.01h22.56v-7.57h-14.99v-45.27h-7.57v52.83h0ZM264.73,96.01h22.56v-7.57h-14.99v-15.51h13.06v-7.12h-13.06v-15.51h14.99v-7.12h-22.56v52.83h0ZM299.98,96.01h7.57v-52.83h-7.57v52.83h0ZM322.46,96.01h7.57v-20.63h3.86c2.82,0,5.1-.48,6.83-1.45,1.73-.96,3.12-2.31,4.15-4.04.89-1.43,1.47-2.98,1.74-4.64.27-1.66.41-3.65.41-5.97,0-3.17-.25-5.68-.74-7.53-.49-1.86-1.39-3.47-2.67-4.86-1.29-1.38-2.72-2.35-4.3-2.89-1.58-.54-3.41-.82-5.49-.82h-11.35v52.83h0ZM330.03,50.3h3.93c1.48,0,2.62.24,3.41.7.79.47,1.37,1.11,1.74,1.93.37.82.59,1.78.67,2.89.08,1.11.11,2.29.11,3.52,0,1.34-.04,2.55-.11,3.64-.07,1.09-.31,2.02-.7,2.78-.4.77-1.01,1.37-1.86,1.82-.84.45-2.03.67-3.56.67h-3.64v-17.96h0ZM357.78,96.01h22.48v-7.12h-14.55l14.55-39.7v-6.01h-21.74v7.12h13.51l-14.25,39.03v6.68h0ZM392.73,96.01h7.57v-52.83h-7.57v52.83h0ZM414.77,83.54c0,2.18.37,4.07,1.11,5.68.74,1.61,1.72,2.94,2.93,4.01,1.21,1.06,2.57,1.87,4.08,2.41,1.51.54,3.03.82,4.56.82s3.05-.27,4.56-.82c1.51-.54,2.87-1.35,4.08-2.41,1.21-1.06,2.19-2.4,2.93-4.01.74-1.61,1.11-3.5,1.11-5.68v-16.62h-13.58v6.68h6.01v9.94c0,1.83-.51,3.18-1.52,4.04-1.01.87-2.21,1.3-3.6,1.3s-2.58-.43-3.6-1.3c-1.01-.87-1.52-2.21-1.52-4.04v-27.9c0-1.83.51-3.18,1.52-4.04,1.01-.87,2.21-1.3,3.6-1.3s2.59.43,3.6,1.3c1.01.87,1.52,2.21,1.52,4.04v2.67h7.57v-2.67c0-2.13-.37-4.01-1.11-5.64s-1.72-2.98-2.93-4.04c-1.21-1.06-2.57-1.87-4.08-2.41-1.51-.54-3.03-.82-4.56-.82s-3.05.27-4.56.82c-1.51.54-2.87,1.35-4.08,2.41-1.21,1.06-2.19,2.41-2.93,4.04s-1.11,3.51-1.11,5.64v27.9h0Z"/>
  <path class="cls-2" d="M118.5,28.05c.29-.06.54-.16.73-.29.19-.13.34-.31.45-.54.11-.23.17-.52.17-.87V8.84l-6.96,3.52c-.22.06-.4,0-.54-.14-.14-.15-.2-.38-.18-.69v-6.74c0-.07,0-.16.03-.25.02-.09.06-.17.11-.23.05-.06.14-.12.26-.18.12-.06.27-.08.45-.08.16,0,.34,0,.52-.01.18,0,.37-.02.55-.03.18,0,.37-.01.55-.01s.36,0,.54.03c.17.02.33.04.47.07.14.03.26.07.36.12.1.06.17.13.22.22.05.09.06.19.04.3l.03,2.7,3.55-.77.08-5.64c-.06-.33-.23-.58-.52-.74-.29-.17-.73-.25-1.32-.25l-8.42-.03c-.22.05-.4.11-.54.18-.14.06-.25.14-.34.23-.09.09-.16.21-.22.36-.06.15-.11.34-.17.58v17.33l7.51-3.88v8.91c-.11.22-.28.38-.51.48-.23.1-.49.16-.77.18-.28.02-.58.01-.89-.01-.31-.03-.6-.04-.85-.04-.22.02-.39-.04-.51-.18-.12-.14-.19-.36-.21-.67l.03-3.99-3.8,2.34v5.12c0,.17.04.32.11.47.07.15.17.27.29.37.12.1.25.19.4.26.15.07.29.11.44.11l7.87.03c.37-.02.7-.06.99-.12h0ZM129.92,28.18c.16,0,.29-.01.38-.04.09-.03.16-.07.21-.14.04-.06.08-.15.1-.26.02-.11.04-.25.06-.41V4.27h3.71c.13,0,.23,0,.32-.01.08,0,.15-.04.21-.08.05-.05.09-.11.11-.19.02-.08.04-.21.05-.37V.36c-.02-.09-.04-.16-.05-.21-.02-.05-.05-.08-.1-.1-.05-.02-.11-.03-.18-.04-.07,0-.18-.01-.3-.01h-12.52c-.13.04-.23.07-.3.11-.07.04-.13.08-.18.12-.05.05-.08.11-.1.18-.02.07-.03.17-.03.28v3.05c.02.13.04.23.07.3.03.07.06.13.11.17.05.04.12.06.21.06h4.13l.03,23.16v.4c0,.1.02.18.06.23.04.05.1.09.18.1.08,0,.21.01.37.01h3.47ZM140.54,19.04l4.79-2.34.03,11.47h4.73l.03-26.63c-.02-.29-.05-.54-.11-.74-.06-.2-.14-.36-.26-.47-.12-.11-.28-.19-.47-.23-.19-.05-.44-.07-.73-.07h-11.09c-.31.04-.57.09-.77.16-.2.07-.37.17-.51.3-.14.13-.24.29-.3.5-.06.2-.1.44-.12.72v26.47h4.79v-9.13h0ZM140.24,5.89c-.02-.31.05-.55.19-.7.15-.16.39-.23.74-.23h3.03c.35.02.59.11.73.26.14.16.22.4.23.73v5.12l-4.92,2.39v-7.57h0ZM155.77,28.14c.1-.03.18-.08.23-.15.06-.07.1-.17.12-.29.03-.12.05-.26.07-.43v-10.21h1.15l5.67,10.29c.09.18.17.33.23.43.06.1.12.18.18.25.05.06.12.11.19.12.07.02.17.03.3.03h4.21l-7.18-12.63,2.92-2.83c.2-.22.36-.4.48-.54.12-.14.21-.27.26-.39.05-.12.09-.26.11-.41.02-.16.02-.36,0-.62V3.89c-.04-.79-.12-1.43-.25-1.93-.13-.5-.3-.88-.52-1.17-.22-.28-.48-.48-.78-.59-.3-.11-.66-.17-1.06-.19h-9.6c-.15,0-.28,0-.39.03-.11.02-.2.06-.26.12-.06.06-.11.15-.14.26-.03.11-.04.26-.04.44v26.36c-.02.33.04.57.17.73.13.16.32.23.58.23h2.94c.17,0,.3-.01.4-.04h0ZM156.66,12.74c-.13.09-.22.11-.27.06-.06-.06-.09-.18-.11-.39-.02-.2-.03-.5-.03-.88l-.03-6.27c0-.13,0-.22.03-.29.02-.06.05-.11.1-.15.05-.04.11-.06.19-.07.08,0,.2-.01.34-.01h3.05c.2,0,.34.03.43.08.08.05.12.17.12.33l.03,3.36c-.02.17-.06.3-.12.4-.06.1-.13.2-.21.29l-2.97,3.11c-.24.2-.42.35-.55.44h0ZM188.55,28.18c.16,0,.29-.01.38-.04.09-.03.16-.07.21-.14.04-.06.08-.15.1-.26.02-.11.04-.25.06-.41V4.27h3.71c.13,0,.23,0,.32-.01.08,0,.15-.04.21-.08.06-.05.09-.11.11-.19.02-.08.04-.21.05-.37V.36c-.02-.09-.04-.16-.05-.21-.02-.05-.05-.08-.1-.1-.05-.02-.11-.03-.18-.04-.07,0-.17-.01-.3-.01h-12.52c-.13.04-.23.07-.3.11-.07.04-.13.08-.18.12-.05.05-.08.11-.1.18-.02.07-.03.17-.03.28v3.05c.02.13.04.23.07.3.03.07.06.13.11.17.05.04.11.06.21.06h4.13l.03,23.16v.4c0,.1.02.18.06.23.04.05.1.09.18.1.08,0,.21.01.37.01h3.47ZM198.49,28.14c.1-.03.18-.08.23-.15.06-.07.1-.17.12-.29.03-.12.05-.26.07-.43v-10.21h1.15l5.67,10.29c.09.18.17.33.23.43.06.1.12.18.18.25.05.06.12.11.19.12.07.02.17.03.3.03h4.21l-7.18-12.63,2.92-2.83c.2-.22.36-.4.48-.54.12-.14.21-.27.26-.39.06-.12.09-.26.11-.41.02-.16.02-.36,0-.62V3.89c-.04-.79-.12-1.43-.25-1.93-.13-.5-.3-.88-.52-1.17-.22-.28-.48-.48-.78-.59-.3-.11-.66-.17-1.06-.19h-9.6c-.15,0-.28,0-.39.03-.11.02-.2.06-.26.12-.06.06-.11.15-.14.26-.03.11-.04.26-.04.44v26.36c-.02.33.04.57.17.73.13.16.32.23.58.23h2.94c.17,0,.3-.01.4-.04h0ZM199.38,12.74c-.13.09-.22.11-.27.06-.06-.06-.09-.18-.11-.39-.02-.2-.03-.5-.03-.88l-.03-6.27c0-.13,0-.22.03-.29.02-.06.05-.11.1-.15.04-.04.11-.06.19-.07.08,0,.2-.01.34-.01h3.05c.2,0,.34.03.43.08.08.05.12.17.12.33l.03,3.36c-.02.17-.06.3-.12.4-.06.1-.13.2-.21.29l-2.97,3.11c-.24.2-.42.35-.55.44h0ZM221.59,28.09c.11,0,.2-.01.28-.04.07-.03.13-.06.18-.1.05-.04.07-.09.08-.16,0-.07.01-.17.01-.28v-3.22c0-.2-.04-.34-.11-.41-.07-.07-.2-.11-.38-.11h-5.34v-6.8l5.31-2.86v-5.06l-5.31,2.67v-6.6l4.51-.85c.13-.04.24-.07.34-.11.1-.04.19-.08.26-.12.07-.05.12-.11.15-.21.03-.09.05-.21.07-.36V.78c0-.15,0-.28-.03-.39-.02-.11-.05-.19-.1-.25-.05-.05-.11-.09-.19-.11-.08-.02-.18-.03-.29-.03h-7.84c-.16,0-.34.06-.52.18-.18.12-.35.26-.5.43-.15.17-.27.35-.37.56-.1.21-.14.41-.12.59v25.67c0,.07.03.15.1.23.06.08.14.16.22.23.08.07.17.13.26.17.09.04.17.04.25,0l9.08.03h0ZM228,28.18v-8.28l1.18-2.89,5.2,11.17h4.51l-7.59-15.57L237.54,0l-4.57.03-4.98,9.55V0h-4.48l-.03,28.12,4.51.05h0ZM259.28,28.15c.33-.02.64-.08.93-.18.29-.1.57-.22.84-.37.27-.15.51-.33.73-.54.22-.21.43-.43.62-.66.19-.23.36-.47.51-.72.15-.25.28-.49.39-.73.11-.24.2-.48.26-.72.06-.24.11-.46.12-.66V4.44c-.04-.61-.15-1.16-.33-1.68-.18-.51-.44-.96-.78-1.33-.34-.38-.75-.68-1.24-.92-.49-.24-1.06-.39-1.72-.47h-8.12v28.14l7.79-.03h0ZM255.07,24.71V3.5h2.92c.33.02.61.07.84.17.23.09.42.24.56.44.15.2.27.46.36.77.09.31.16.69.19,1.13v16.62c-.02.29-.07.57-.15.84-.08.27-.21.49-.37.67-.17.18-.36.33-.59.44-.23.11-.51.17-.84.17l-2.92-.03h0ZM269.62,28.07c.17-.04.3-.1.4-.18.1-.08.18-.18.23-.3.06-.12.09-.24.11-.37V.97c-.02-.22-.04-.39-.07-.51-.03-.12-.07-.21-.14-.28-.07-.06-.16-.11-.28-.12-.12-.02-.29-.04-.51-.05l-3.16.03c-.26,0-.46.01-.61.04-.15.03-.26.07-.33.14-.07.06-.12.15-.14.26-.02.11-.02.27,0,.47v26.3c0,.35.12.59.36.72.24.13.61.17,1.13.14l2.42.03c.22,0,.41-.02.58-.05h0ZM276.11,5.87c0-.15,0-.28.01-.41,0-.13.04-.24.11-.34.06-.1.15-.18.25-.23.1-.05.24-.07.43-.05h2.94c.18-.02.33,0,.44.03.11.04.19.1.25.19.06.09.09.21.11.34.02.14.03.3.03.48v22.31h4.62V2.76c-.07-.4-.24-.76-.49-1.06-.26-.3-.58-.56-.98-.78-.4-.22-.83-.4-1.31-.54-.48-.14-.97-.24-1.49-.3-.51-.06-1.02-.09-1.51-.07-.5.02-.96.07-1.39.15-.43.08-.81.2-1.14.34-.33.15-.57.32-.71.52-.04-.06-.07-.12-.11-.21-.04-.08-.08-.16-.12-.23-.05-.07-.11-.14-.18-.19-.07-.05-.16-.08-.28-.08l-3.27.11c-.15,0-.27.02-.38.07-.11.05-.2.11-.28.18-.07.07-.13.16-.16.25-.04.09-.05.19-.05.3v26.96h4.68V5.87h0ZM291.49,5.87c0-.15,0-.28.01-.41,0-.13.05-.24.11-.34.06-.1.15-.18.25-.23.1-.05.24-.07.43-.05h2.94c.18-.02.33,0,.44.03.11.04.19.1.25.19.06.09.09.21.11.34.02.14.03.3.03.48v22.31h4.62V2.76c-.07-.4-.24-.76-.49-1.06-.26-.3-.58-.56-.98-.78-.39-.22-.83-.4-1.31-.54-.48-.14-.97-.24-1.48-.3-.51-.06-1.02-.09-1.51-.07-.5.02-.96.07-1.39.15-.43.08-.81.2-1.14.34-.33.15-.57.32-.72.52-.04-.06-.07-.12-.11-.21-.04-.08-.08-.16-.12-.23-.05-.07-.11-.14-.18-.19-.07-.05-.17-.08-.27-.08l-3.27.11c-.15,0-.28.02-.39.07-.11.05-.2.11-.27.18-.07.07-.13.16-.17.25-.04.09-.05.19-.05.3v26.96h4.68V5.87h0ZM312.12,28.09c.11,0,.2-.01.28-.04.07-.03.13-.06.18-.1.05-.04.07-.09.08-.16,0-.07.01-.17.01-.28v-3.22c0-.2-.04-.34-.11-.41-.07-.07-.2-.11-.38-.11h-5.34v-6.8l5.31-2.86v-5.06l-5.31,2.67v-6.6l4.51-.85c.13-.04.24-.07.34-.11.1-.04.19-.08.26-.12.07-.05.12-.11.15-.21.03-.09.05-.21.07-.36V.78c0-.15,0-.28-.03-.39-.02-.11-.05-.19-.1-.25-.05-.05-.11-.09-.19-.11-.08-.02-.18-.03-.29-.03h-7.84c-.17,0-.34.06-.52.18-.18.12-.35.26-.49.43-.15.17-.27.35-.37.56-.1.21-.14.41-.12.59v25.67c0,.07.03.15.1.23.06.08.14.16.22.23.08.07.17.13.26.17.09.04.17.04.25,0l9.08.03h0ZM318.13,28.14c.1-.03.18-.08.23-.15.05-.07.1-.17.12-.29.03-.12.05-.26.07-.43v-10.21h1.15l5.67,10.29c.09.18.17.33.23.43.06.1.12.18.18.25.05.06.12.11.19.12.07.02.17.03.3.03h4.21l-7.18-12.63,2.92-2.83c.2-.22.36-.4.48-.54.12-.14.21-.27.26-.39.05-.12.09-.26.11-.41.02-.16.02-.36,0-.62V3.89c-.04-.79-.12-1.43-.25-1.93-.13-.5-.3-.88-.52-1.17-.22-.28-.48-.48-.78-.59-.3-.11-.66-.17-1.06-.19h-9.6c-.15,0-.28,0-.39.03-.11.02-.2.06-.26.12-.07.06-.11.15-.14.26-.03.11-.04.26-.04.44v26.36c-.02.33.04.57.16.73.13.16.32.23.58.23h2.94c.17,0,.3-.01.4-.04h0ZM319.03,12.74c-.13.09-.22.11-.27.06-.05-.06-.09-.18-.11-.39-.02-.2-.03-.5-.03-.88l-.03-6.27c0-.13,0-.22.03-.29.02-.06.05-.11.1-.15.04-.04.11-.06.19-.07.08,0,.2-.01.34-.01h3.05c.2,0,.34.03.43.08.08.05.12.17.12.33l.03,3.36c-.02.17-.06.3-.12.4-.07.1-.13.2-.21.29l-2.97,3.11c-.24.2-.42.35-.55.44h0Z"/>
  <path class="cls-2" d="M39.18,96.01c1.34-18.36,9.99-46.61,17.71-53.89,5.95,5.64,15.84,39.64,14.66,53.89,0,0-8.97-15.68-11.57-15.68-5.26,0-20.8,15.68-20.8,15.68h0Z"/>
</svg>